<?xml version="1.0" standalone="no"?><!DOCTYPE svg PUBLIC "-//W3C//DTD SVG 1.1//EN" "http://www.w3.org/Graphics/SVG/1.1/DTD/svg11.dtd"><svg t="1496987454766" class="icon" style="" viewBox="0 0 1024 1024" version="1.1" xmlns="http://www.w3.org/2000/svg" p-id="2371" xmlns:xlink="http://www.w3.org/1999/xlink" width="200" height="200"><defs><style type="text/css"></style></defs><path d="M782.839536 677.13084q0 87.421268-56.862223 150.555295t-147.707384 78.013562l0 99.996875q0 7.99975-5.151839 13.151589t-13.151589 5.151839l-77.149589 0q-7.423768 0-12.863598-5.43983t-5.43983-12.863598l0-99.996875q-37.726821-5.151839-72.861723-17.727446t-58.014187-25.439205-42.270679-27.423143-26.55917-21.43933-10.015687-10.271679q-9.727696-11.999625-1.151964-23.423268l58.846161-77.149589q3.999875-5.727821 13.151589-6.847786 8.575732-1.151964 13.727571 5.151839l1.151964 1.151964q64.573982 56.574232 138.843661 71.421768 21.151339 4.575857 42.270679 4.575857 46.270554 0 81.437455-24.575232t35.134902-69.725821q0-15.9995-8.575732-30.271054t-19.135402-23.99925-33.438955-21.43933-37.726821-18.271429-45.726571-18.55942q-22.271304-9.151714-35.134902-14.271554t-35.134902-15.135527-35.710884-17.727446-32.286991-20.287366-30.559045-24.287241-24.863223-27.999125-20.287366-33.150964-11.999625-38.014812-4.863848-44.574607q0-78.845536 55.99825-138.267679t145.723446-76.573607l0-102.844786q0-7.423768 5.43983-12.863598t12.863598-5.43983l77.149589 0q7.99975 0 13.151589 5.151839t5.151839 13.151589l0 100.572857q32.574982 3.423893 63.134027 13.151589t49.726446 19.135402 36.286866 21.43933 22.271304 16.575482 8.575732 7.99975q9.727696 10.271679 2.847911 21.727321l-46.270554 83.421393q-4.575857 8.575732-13.151589 9.151714-7.99975 1.727946-15.423518-3.999875-1.727946-1.727946-8.287741-6.847786t-22.271304-15.135527-33.438955-18.271429-42.55867-14.847536-48.862473-6.559795q-54.270304 0-88.573232 24.575232t-34.270929 63.422018q0 14.847536 4.863848 27.423143t16.863473 23.711259 22.559295 18.847411 31.999 17.727446 34.55892 15.423518 39.99875 15.711509q30.271054 11.423643 46.270554 18.015437t43.422643 19.999375 43.134652 24.287241 35.422893 28.575107 30.271054 36.286866 18.015437 43.710634 7.423768 53.726321z" p-id="2372"></path></svg>