<?xml version="1.0" standalone="no"?><!DOCTYPE svg PUBLIC "-//W3C//DTD SVG 1.1//EN" "http://www.w3.org/Graphics/SVG/1.1/DTD/svg11.dtd"><svg t="1496987852114" class="icon" style="" viewBox="0 0 1024 1024" version="1.1" xmlns="http://www.w3.org/2000/svg" p-id="4216" xmlns:xlink="http://www.w3.org/1999/xlink" width="200" height="200"><defs><style type="text/css"></style></defs><path d="M841.142857 566.857143l0 274.285714q0 14.848-10.825143 25.746286t-25.746286 10.825143l-219.428571 0 0-219.428571-146.285714 0 0 219.428571-219.428571 0q-14.848 0-25.746286-10.825143t-10.825143-25.746286l0-274.285714q0-0.585143 0.292571-1.682286t0.292571-1.682286l328.557714-270.848 328.557714 270.848q0.585143 1.170286 0.585143 3.437714zM968.557714 527.433143l-35.401143 42.276571q-4.534857 5.12-11.995429 6.290286l-1.682286 0q-7.460571 0-11.995429-4.022857l-395.410286-329.728-395.410286 329.728q-6.875429 4.534857-13.677714 4.022857-7.460571-1.170286-11.995429-6.290286l-35.401143-42.276571q-4.534857-5.705143-4.022857-13.458286t6.290286-12.288l410.843429-342.308571q18.285714-14.848 43.446857-14.848t43.446857 14.848l139.410286 116.589714 0-111.396571q0-7.972571 5.12-13.165714t13.165714-5.12l109.714286 0q7.972571 0 13.165714 5.12t5.12 13.165714l0 233.179429 125.147429 104.009143q5.705143 4.534857 6.290286 12.288t-4.022857 13.458286z" p-id="4217"></path></svg>