<?xml version="1.0" standalone="no"?><!DOCTYPE svg PUBLIC "-//W3C//DTD SVG 1.1//EN" "http://www.w3.org/Graphics/SVG/1.1/DTD/svg11.dtd"><svg t="1496978599390" class="icon" style="" viewBox="0 0 1024 1024" version="1.1" xmlns="http://www.w3.org/2000/svg" p-id="2382" xmlns:xlink="http://www.w3.org/1999/xlink" width="200" height="200"><defs><style type="text/css"></style></defs><path d="M402.285726 877.714286q0 29.696-21.723429 51.419429t-51.419429 21.723429-51.419429-21.723429-21.723429-51.419429 21.723429-51.419429 51.419429-21.723429 51.419429 21.723429 21.723429 51.419429zM914.285726 877.714286q0 29.696-21.723429 51.419429t-51.419429 21.723429-51.419429-21.723429-21.723429-51.419429 21.723429-51.419429 51.419429-21.723429 51.419429 21.723429 21.723429 51.419429zM987.428584 256l0 292.571429q0 13.677714-9.435429 24.283429t-23.113143 12.288l-596.553143 69.705143q7.460571 34.304 7.460571 40.009143 0 9.142857-13.677714 36.571429l525.677714 0q14.848 0 25.746286 10.825143t10.825143 25.746286-10.825143 25.746286-25.746286 10.825143l-585.142857 0q-14.848 0-25.746286-10.825143t-10.825143-25.746286q0-6.290286 4.534857-17.993143t9.142857-20.553143 12.288-22.820571 8.850286-16.822857l-101.156571-470.308571-116.589714 0q-14.848 0-25.746286-10.825143t-10.825143-25.746286 10.825143-25.746286 25.746286-10.825143l146.285714 0q9.142857 0 16.310857 3.730286t11.117714 8.850286 7.460571 13.970286 4.534857 14.848 3.145143 16.822857 2.56 14.848l686.299429 0q14.848 0 25.746286 10.825143t10.825143 25.746286z" p-id="2383"></path></svg>